<svg xmlns="http://www.w3.org/2000/svg" xmlns:xlink="http://www.w3.org/1999/xlink" width="40" zoomAndPan="magnify" viewBox="0 0 30 30.000001" height="40" preserveAspectRatio="xMidYMid meet" version="1.0"><defs><g/><clipPath id="49e8dee1e7"><path d="M 0.484375 21 L 15 21 L 15 26.992188 L 0.484375 26.992188 Z M 0.484375 21 " clip-rule="nonzero"/></clipPath><clipPath id="8f8f702a60"><path d="M 8 18.285156 L 15 18.285156 L 15 25 L 8 25 Z M 8 18.285156 " clip-rule="nonzero"/></clipPath><clipPath id="6a06006c82"><path d="M 15 21 L 29.515625 21 L 29.515625 26.992188 L 15 26.992188 Z M 15 21 " clip-rule="nonzero"/></clipPath><clipPath id="7dd5f30af9"><path d="M 15 18.285156 L 22 18.285156 L 22 25 L 15 25 Z M 15 18.285156 " clip-rule="nonzero"/></clipPath><clipPath id="66f632c025"><path d="M 0.484375 2.175781 L 29.515625 2.175781 L 29.515625 8.710938 L 0.484375 8.710938 Z M 0.484375 2.175781 " clip-rule="nonzero"/></clipPath></defs><g clip-path="url(#49e8dee1e7)"><path fill="#fa185c" d="M 0.523438 21.371094 L 3.332031 26.878906 L 1.71875 22.492188 C 1.71875 22.492188 10.488281 23.230469 14.316406 26.878906 C 14.316406 26.878906 12.910156 22.601562 0.523438 21.371094 Z M 0.523438 21.371094 " fill-opacity="1" fill-rule="nonzero"/></g><path fill="#fa185c" d="M 5.035156 19.351562 L 5.035156 21.371094 C 11.324219 22.179688 14.796875 25.777344 14.796875 25.777344 C 12.261719 21.300781 5.035156 19.351562 5.035156 19.351562 Z M 5.035156 19.351562 " fill-opacity="1" fill-rule="nonzero"/><g clip-path="url(#8f8f702a60)"><path fill="#fa185c" d="M 8.730469 18.285156 L 8.730469 20.070312 C 12.730469 21.6875 14.792969 24.703125 14.792969 24.703125 C 13.378906 20.53125 8.730469 18.285156 8.730469 18.285156 Z M 8.730469 18.285156 " fill-opacity="1" fill-rule="nonzero"/></g><g clip-path="url(#6a06006c82)"><path fill="#fa185c" d="M 29.476562 21.371094 C 17.089844 22.601562 15.683594 26.878906 15.683594 26.878906 C 19.511719 23.230469 28.28125 22.492188 28.28125 22.492188 L 26.667969 26.878906 Z M 29.476562 21.371094 " fill-opacity="1" fill-rule="nonzero"/></g><path fill="#fa185c" d="M 24.972656 19.351562 C 24.972656 19.351562 17.746094 21.296875 15.207031 25.773438 C 15.207031 25.773438 18.679688 22.171875 24.972656 21.367188 Z M 24.972656 19.351562 " fill-opacity="1" fill-rule="nonzero"/><g clip-path="url(#7dd5f30af9)"><path fill="#fa185c" d="M 21.269531 20.070312 L 21.269531 18.285156 C 21.269531 18.285156 16.621094 20.53125 15.207031 24.703125 C 15.207031 24.703125 17.269531 21.6875 21.269531 20.070312 Z M 21.269531 20.070312 " fill-opacity="1" fill-rule="nonzero"/></g><g clip-path="url(#66f632c025)"><path fill="#fa185c" d="M 29.421875 6.703125 C 27.839844 6.496094 26.3125 7.0625 24.832031 7.542969 C 23.308594 8.035156 21.757812 8.394531 20.148438 8.328125 C 18.710938 8.269531 17.292969 7.875 16.09375 7.070312 C 16.558594 6.636719 16.984375 6.152344 17.355469 5.640625 C 17.828125 4.984375 18.203125 4.25 18.386719 3.460938 C 18.460938 3.15625 18.539062 2.78125 18.367188 2.492188 C 18.183594 2.1875 17.820312 2.183594 17.527344 2.316406 C 17.175781 2.480469 16.886719 2.789062 16.632812 3.066406 C 16.359375 3.363281 16.117188 3.6875 15.910156 4.03125 C 15.832031 4.167969 15.761719 4.304688 15.691406 4.441406 C 15.542969 3.816406 15.199219 3.257812 14.683594 2.867188 C 14.425781 2.667969 14.085938 2.464844 13.753906 2.609375 C 13.527344 2.707031 13.40625 2.945312 13.363281 3.179688 C 13.257812 3.78125 13.539062 4.429688 13.808594 4.949219 C 14.125 5.554688 14.546875 6.101562 15.039062 6.570312 C 15.234375 6.757812 15.441406 6.925781 15.648438 7.085938 C 15.558594 7.160156 15.464844 7.238281 15.371094 7.308594 C 14.734375 7.800781 14.015625 8.191406 13.230469 8.382812 C 12.410156 8.582031 11.554688 8.574219 10.722656 8.460938 C 9.007812 8.226562 7.398438 7.554688 5.722656 7.140625 C 4.019531 6.71875 2.117188 6.488281 0.5 7.320312 C 0.484375 7.328125 0.496094 7.347656 0.511719 7.339844 C 0.910156 7.171875 1.328125 7.042969 1.753906 6.96875 C 2.1875 6.890625 2.628906 6.890625 3.066406 6.90625 C 3.945312 6.9375 4.8125 7.121094 5.660156 7.359375 C 7.390625 7.851562 9.0625 8.566406 10.863281 8.785156 C 11.746094 8.890625 12.652344 8.867188 13.507812 8.621094 C 14.316406 8.390625 15.035156 7.964844 15.679688 7.429688 C 15.75 7.371094 15.816406 7.316406 15.886719 7.253906 C 18.179688 8.832031 21.230469 8.875 23.871094 8.117188 C 25.691406 7.597656 27.472656 6.667969 29.421875 6.839844 C 29.515625 6.851562 29.511719 6.714844 29.421875 6.703125 Z M 13.675781 4.113281 C 13.570312 3.820312 13.5 3.515625 13.566406 3.203125 C 13.640625 2.84375 13.917969 2.667969 14.269531 2.839844 C 14.953125 3.167969 15.464844 3.90625 15.613281 4.636719 C 15.621094 4.683594 15.699219 4.695312 15.71875 4.652344 C 16.0625 3.9375 16.578125 3.28125 17.175781 2.757812 C 17.414062 2.546875 17.925781 2.179688 18.195312 2.550781 C 18.40625 2.839844 18.242188 3.316406 18.152344 3.621094 C 17.933594 4.359375 17.519531 5.042969 17.046875 5.644531 C 16.6875 6.097656 16.289062 6.523438 15.855469 6.910156 C 14.890625 6.199219 14.09375 5.246094 13.675781 4.113281 Z M 13.675781 4.113281 " fill-opacity="1" fill-rule="nonzero"/></g><g fill="#fa185c" fill-opacity="1"><g transform="translate(1.130866, 15.581706)"><g><path d="M 3.203125 -1.265625 C 3.203125 -1.128906 3.175781 -1.003906 3.125 -0.890625 C 3.050781 -0.773438 2.96875 -0.675781 2.875 -0.59375 C 2.757812 -0.507812 2.640625 -0.441406 2.515625 -0.390625 C 2.378906 -0.347656 2.238281 -0.328125 2.09375 -0.328125 L 0.984375 -0.328125 L 0.984375 -2.390625 L 2.09375 -2.390625 C 2.238281 -2.390625 2.378906 -2.363281 2.515625 -2.3125 C 2.640625 -2.269531 2.757812 -2.207031 2.875 -2.125 C 2.96875 -2.039062 3.050781 -1.941406 3.125 -1.828125 C 3.175781 -1.703125 3.203125 -1.566406 3.203125 -1.421875 Z M 1.890625 -4.15625 C 2.015625 -4.15625 2.132812 -4.144531 2.25 -4.125 C 2.351562 -4.09375 2.445312 -4.050781 2.53125 -4 C 2.601562 -3.945312 2.660156 -3.878906 2.703125 -3.796875 C 2.753906 -3.710938 2.78125 -3.601562 2.78125 -3.46875 L 2.78125 -3.375 C 2.78125 -3.1875 2.707031 -3.035156 2.5625 -2.921875 C 2.425781 -2.785156 2.253906 -2.707031 2.046875 -2.6875 L 0.96875 -2.6875 L 0.96875 -4.15625 Z M 3.296875 -2.34375 C 3.222656 -2.394531 3.144531 -2.4375 3.0625 -2.46875 C 2.96875 -2.507812 2.875 -2.546875 2.78125 -2.578125 C 2.976562 -2.660156 3.128906 -2.773438 3.234375 -2.921875 C 3.347656 -3.054688 3.40625 -3.207031 3.40625 -3.375 L 3.40625 -3.484375 C 3.40625 -3.660156 3.367188 -3.816406 3.296875 -3.953125 C 3.210938 -4.078125 3.101562 -4.175781 2.96875 -4.25 C 2.832031 -4.332031 2.671875 -4.390625 2.484375 -4.421875 C 2.304688 -4.453125 2.109375 -4.46875 1.890625 -4.46875 L 0.328125 -4.46875 L 0.328125 0 L 2.078125 0 C 2.296875 0 2.515625 -0.03125 2.734375 -0.09375 C 2.953125 -0.144531 3.140625 -0.226562 3.296875 -0.34375 C 3.472656 -0.457031 3.609375 -0.597656 3.703125 -0.765625 C 3.796875 -0.921875 3.84375 -1.085938 3.84375 -1.265625 L 3.84375 -1.421875 C 3.84375 -1.597656 3.796875 -1.769531 3.703125 -1.9375 C 3.609375 -2.09375 3.472656 -2.226562 3.296875 -2.34375 Z M 3.296875 -2.34375 "/></g></g></g><g fill="#fa185c" fill-opacity="1"><g transform="translate(5.280247, 15.581706)"><g><path d="M 2.453125 -3.90625 C 2.140625 -3.90625 1.851562 -3.859375 1.59375 -3.765625 C 1.332031 -3.671875 1.109375 -3.539062 0.921875 -3.375 C 0.722656 -3.195312 0.570312 -2.988281 0.46875 -2.75 C 0.363281 -2.507812 0.3125 -2.242188 0.3125 -1.953125 C 0.3125 -1.660156 0.363281 -1.394531 0.46875 -1.15625 C 0.570312 -0.914062 0.722656 -0.707031 0.921875 -0.53125 C 1.109375 -0.363281 1.332031 -0.234375 1.59375 -0.140625 C 1.851562 -0.046875 2.140625 0 2.453125 0 C 2.765625 0 3.050781 -0.046875 3.3125 -0.140625 C 3.570312 -0.234375 3.800781 -0.363281 4 -0.53125 C 4.1875 -0.707031 4.332031 -0.914062 4.4375 -1.15625 C 4.539062 -1.394531 4.59375 -1.660156 4.59375 -1.953125 C 4.59375 -2.242188 4.539062 -2.507812 4.4375 -2.75 C 4.332031 -2.988281 4.1875 -3.195312 4 -3.375 C 3.800781 -3.539062 3.570312 -3.671875 3.3125 -3.765625 C 3.050781 -3.859375 2.765625 -3.90625 2.453125 -3.90625 Z M 2.453125 -0.28125 C 2.171875 -0.28125 1.925781 -0.328125 1.71875 -0.421875 C 1.519531 -0.515625 1.359375 -0.640625 1.234375 -0.796875 C 1.097656 -0.953125 1.003906 -1.128906 0.953125 -1.328125 C 0.890625 -1.523438 0.859375 -1.734375 0.859375 -1.953125 C 0.859375 -2.160156 0.890625 -2.363281 0.953125 -2.5625 C 1.003906 -2.769531 1.097656 -2.953125 1.234375 -3.109375 C 1.359375 -3.265625 1.519531 -3.390625 1.71875 -3.484375 C 1.925781 -3.578125 2.171875 -3.625 2.453125 -3.625 C 2.734375 -3.625 2.976562 -3.578125 3.1875 -3.484375 C 3.382812 -3.390625 3.550781 -3.265625 3.6875 -3.109375 C 3.8125 -2.953125 3.90625 -2.769531 3.96875 -2.5625 C 4.019531 -2.363281 4.046875 -2.160156 4.046875 -1.953125 C 4.046875 -1.734375 4.019531 -1.523438 3.96875 -1.328125 C 3.90625 -1.128906 3.8125 -0.953125 3.6875 -0.796875 C 3.550781 -0.640625 3.382812 -0.515625 3.1875 -0.421875 C 2.976562 -0.328125 2.734375 -0.28125 2.453125 -0.28125 Z M 2.453125 -0.28125 "/></g></g></g><g fill="#fa185c" fill-opacity="1"><g transform="translate(10.196844, 15.581706)"><g><path d="M 2.453125 -3.90625 C 2.140625 -3.90625 1.851562 -3.859375 1.59375 -3.765625 C 1.332031 -3.671875 1.109375 -3.539062 0.921875 -3.375 C 0.722656 -3.195312 0.570312 -2.988281 0.46875 -2.75 C 0.363281 -2.507812 0.3125 -2.242188 0.3125 -1.953125 C 0.3125 -1.660156 0.363281 -1.394531 0.46875 -1.15625 C 0.570312 -0.914062 0.722656 -0.707031 0.921875 -0.53125 C 1.109375 -0.363281 1.332031 -0.234375 1.59375 -0.140625 C 1.851562 -0.046875 2.140625 0 2.453125 0 C 2.765625 0 3.050781 -0.046875 3.3125 -0.140625 C 3.570312 -0.234375 3.800781 -0.363281 4 -0.53125 C 4.1875 -0.707031 4.332031 -0.914062 4.4375 -1.15625 C 4.539062 -1.394531 4.59375 -1.660156 4.59375 -1.953125 C 4.59375 -2.242188 4.539062 -2.507812 4.4375 -2.75 C 4.332031 -2.988281 4.1875 -3.195312 4 -3.375 C 3.800781 -3.539062 3.570312 -3.671875 3.3125 -3.765625 C 3.050781 -3.859375 2.765625 -3.90625 2.453125 -3.90625 Z M 2.453125 -0.28125 C 2.171875 -0.28125 1.925781 -0.328125 1.71875 -0.421875 C 1.519531 -0.515625 1.359375 -0.640625 1.234375 -0.796875 C 1.097656 -0.953125 1.003906 -1.128906 0.953125 -1.328125 C 0.890625 -1.523438 0.859375 -1.734375 0.859375 -1.953125 C 0.859375 -2.160156 0.890625 -2.363281 0.953125 -2.5625 C 1.003906 -2.769531 1.097656 -2.953125 1.234375 -3.109375 C 1.359375 -3.265625 1.519531 -3.390625 1.71875 -3.484375 C 1.925781 -3.578125 2.171875 -3.625 2.453125 -3.625 C 2.734375 -3.625 2.976562 -3.578125 3.1875 -3.484375 C 3.382812 -3.390625 3.550781 -3.265625 3.6875 -3.109375 C 3.8125 -2.953125 3.90625 -2.769531 3.96875 -2.5625 C 4.019531 -2.363281 4.046875 -2.160156 4.046875 -1.953125 C 4.046875 -1.734375 4.019531 -1.523438 3.96875 -1.328125 C 3.90625 -1.128906 3.8125 -0.953125 3.6875 -0.796875 C 3.550781 -0.640625 3.382812 -0.515625 3.1875 -0.421875 C 2.976562 -0.328125 2.734375 -0.28125 2.453125 -0.28125 Z M 2.453125 -0.28125 "/></g></g></g><g fill="#fa185c" fill-opacity="1"><g transform="translate(15.113442, 15.581706)"><g><path d="M 1.390625 -2.0625 L 3.5 -3.90625 L 3.078125 -3.90625 L 0.875 -1.984375 L 0.875 -3.90625 L 0.3125 -3.90625 L 0.3125 0 L 0.875 0 L 0.875 -1.609375 L 0.96875 -1.6875 L 2.875 0 L 3.71875 0 Z M 1.390625 -2.0625 "/></g></g></g><g fill="#fa185c" fill-opacity="1"><g transform="translate(19.160527, 15.581706)"><g><path d="M 1.953125 -2.3125 C 1.878906 -2.34375 1.785156 -2.378906 1.671875 -2.421875 C 1.554688 -2.472656 1.441406 -2.535156 1.328125 -2.609375 C 1.222656 -2.671875 1.128906 -2.742188 1.046875 -2.828125 C 0.972656 -2.910156 0.9375 -3 0.9375 -3.09375 C 0.9375 -3.207031 0.960938 -3.296875 1.015625 -3.359375 C 1.066406 -3.429688 1.140625 -3.484375 1.234375 -3.515625 C 1.316406 -3.554688 1.414062 -3.585938 1.53125 -3.609375 C 1.632812 -3.617188 1.738281 -3.625 1.84375 -3.625 C 2.019531 -3.625 2.175781 -3.601562 2.3125 -3.5625 C 2.4375 -3.53125 2.554688 -3.476562 2.671875 -3.40625 L 2.859375 -3.640625 C 2.710938 -3.722656 2.546875 -3.785156 2.359375 -3.828125 C 2.179688 -3.867188 2.003906 -3.890625 1.828125 -3.890625 C 1.617188 -3.890625 1.429688 -3.867188 1.265625 -3.828125 C 1.078125 -3.773438 0.921875 -3.707031 0.796875 -3.625 C 0.671875 -3.539062 0.570312 -3.4375 0.5 -3.3125 C 0.425781 -3.1875 0.390625 -3.050781 0.390625 -2.90625 C 0.390625 -2.769531 0.425781 -2.648438 0.5 -2.546875 C 0.570312 -2.441406 0.664062 -2.347656 0.78125 -2.265625 C 0.894531 -2.179688 1.023438 -2.101562 1.171875 -2.03125 C 1.316406 -1.96875 1.460938 -1.898438 1.609375 -1.828125 C 1.734375 -1.765625 1.851562 -1.707031 1.96875 -1.65625 C 2.082031 -1.601562 2.179688 -1.546875 2.265625 -1.484375 C 2.347656 -1.421875 2.410156 -1.351562 2.453125 -1.28125 C 2.503906 -1.195312 2.53125 -1.101562 2.53125 -1 C 2.53125 -0.863281 2.503906 -0.75 2.453125 -0.65625 C 2.398438 -0.5625 2.332031 -0.488281 2.25 -0.4375 C 2.15625 -0.375 2.050781 -0.332031 1.9375 -0.3125 C 1.820312 -0.28125 1.695312 -0.265625 1.5625 -0.265625 C 1.476562 -0.265625 1.394531 -0.269531 1.3125 -0.28125 C 1.226562 -0.28125 1.140625 -0.296875 1.046875 -0.328125 C 0.953125 -0.347656 0.863281 -0.382812 0.78125 -0.4375 C 0.6875 -0.488281 0.59375 -0.554688 0.5 -0.640625 L 0.3125 -0.4375 C 0.425781 -0.332031 0.535156 -0.25 0.640625 -0.1875 C 0.753906 -0.132812 0.863281 -0.09375 0.96875 -0.0625 C 1.070312 -0.03125 1.175781 -0.0078125 1.28125 0 C 1.382812 0 1.484375 0 1.578125 0 C 1.785156 0 1.984375 -0.0195312 2.171875 -0.0625 C 2.359375 -0.113281 2.523438 -0.1875 2.671875 -0.28125 C 2.816406 -0.375 2.9375 -0.488281 3.03125 -0.625 C 3.113281 -0.75 3.15625 -0.890625 3.15625 -1.046875 C 3.15625 -1.242188 3.125 -1.410156 3.0625 -1.546875 C 2.988281 -1.679688 2.894531 -1.796875 2.78125 -1.890625 C 2.664062 -1.972656 2.535156 -2.046875 2.390625 -2.109375 C 2.242188 -2.179688 2.097656 -2.25 1.953125 -2.3125 Z M 1.953125 -2.3125 "/></g></g></g><g fill="#fa185c" fill-opacity="1"><g transform="translate(22.651378, 15.581706)"><g><path d="M 4.34375 -4.46875 L 2.6875 -0.96875 L 1.015625 -4.46875 L 0.3125 -4.46875 L 2.4375 0 L 2.578125 0 L 4.703125 -4.46875 Z M 4.34375 -4.46875 "/></g></g></g><g fill="#fa185c" fill-opacity="1"><g transform="translate(27.670271, 15.581706)"><g><path d="M 0.875 0 L 0.875 -3.90625 L 0.3125 -3.90625 L 0.3125 0 Z M 0.875 0 "/></g></g></g></svg>